<svg width="300" height="175" viewBox="0 0 300 175" fill="none" xmlns="http://www.w3.org/2000/svg">
<g clip-path="url(#clip0_19_1080)">
<path d="M150.057 2.63342H147.538V67.5719H150.057V2.63342Z" fill="white"/>
<path d="M147.538 27.9753V22.613C147.538 17.4416 151.469 13.0717 156.488 12.6709L157.842 12.5564V17.9187C157.842 23.0901 153.912 27.46 148.893 27.8608L147.538 27.9753ZM155.324 15.4952C152.29 16.373 150.076 19.2545 150.076 22.5939V25.0174C153.11 24.1396 155.324 21.2581 155.324 17.9187V15.4952Z" fill="white"/>
<path d="M147.538 37.9555V32.5933C147.538 27.4219 151.469 23.0519 156.488 22.6512L157.842 22.5367V27.8989C157.842 33.0703 153.912 37.4403 148.893 37.841L147.538 37.9555ZM155.324 25.4754C152.29 26.3532 150.076 29.2347 150.076 32.5742V34.9977C153.11 34.1199 155.324 31.2384 155.324 27.8989V25.4754Z" fill="white"/>
<path d="M147.538 47.993V42.6308C147.538 37.4594 151.469 33.0894 156.488 32.6887L157.842 32.5742V37.9364C157.842 43.1078 153.912 47.4778 148.893 47.8785L147.538 47.993ZM155.324 35.5129C152.29 36.3907 150.076 39.2722 150.076 42.6117V45.0352C153.11 44.1574 155.324 41.2759 155.324 37.9364V35.5129Z" fill="white"/>
<path d="M157.842 8.14832H155.324V13.9685H157.842V8.14832Z" fill="white"/>
<path d="M150.076 27.9753L148.722 27.8608C143.703 27.46 139.772 23.0901 139.772 17.9187V12.5564L141.127 12.6709C146.146 13.0717 150.076 17.4416 150.076 22.613V27.9753ZM142.291 15.4952V17.9187C142.291 21.2581 144.504 24.1396 147.538 25.0174V22.5939C147.538 19.2545 145.325 16.373 142.291 15.4952Z" fill="white"/>
<path d="M150.076 37.9555L148.722 37.841C143.703 37.4403 139.772 33.0703 139.772 27.8989V22.5367L141.127 22.6512C146.146 23.0519 150.076 27.4219 150.076 32.5933V37.9555ZM142.291 25.4754V27.8989C142.291 31.2384 144.504 34.1199 147.538 34.9977V32.5742C147.538 29.2347 145.325 26.3532 142.291 25.4754Z" fill="white"/>
<path d="M150.076 47.993L148.722 47.8785C143.703 47.4778 139.772 43.1078 139.772 37.9364V32.5742L141.127 32.6887C146.146 33.0894 150.076 37.4594 150.076 42.6308V47.993ZM142.291 35.5129V37.9364C142.291 41.2759 144.504 44.1765 147.538 45.0352V42.6117C147.538 39.2722 145.325 36.3716 142.291 35.5129Z" fill="white"/>
<path d="M147.538 58.2213V52.8591C147.538 47.6877 151.469 43.3178 156.488 42.917L157.842 42.8025V48.1648C157.842 53.3362 153.912 57.7061 148.893 58.1069L147.538 58.2213ZM155.324 45.7413C152.29 46.6191 150.076 49.5006 150.076 52.84V55.2635C153.11 54.3857 155.324 51.5042 155.324 48.1648V45.7413Z" fill="white"/>
<path d="M150.076 58.2213L148.722 58.1069C143.703 57.7061 139.772 53.3362 139.772 48.1648V42.8025L141.127 42.917C146.146 43.3178 150.076 47.6877 150.076 52.8591V58.2213ZM142.291 45.7413V48.1648C142.291 51.5042 144.504 54.3857 147.538 55.2635V52.84C147.538 49.5006 145.325 46.6 142.291 45.7413Z" fill="white"/>
<path d="M142.291 8.14832H139.772V13.9685H142.291V8.14832Z" fill="white"/>
<path d="M131.682 67.4574L129.201 67.9726L120.843 24.6549L123.324 24.1587L131.682 67.4574Z" fill="white"/>
<path d="M128.113 49.0044L126.759 49.1761C121.759 49.7868 117.084 46.2947 116.111 41.2187L115.1 35.9518L116.455 35.7801C121.454 35.1694 126.129 38.6616 127.102 43.7376L128.113 49.0044ZM118.115 38.3181L118.573 40.7034C119.202 43.9857 121.931 46.371 125.08 46.6191L124.622 44.2337C123.992 40.9515 121.263 38.5662 118.115 38.3181Z" fill="white"/>
<path d="M130.002 58.7938L128.648 58.9656C123.648 59.5762 118.973 56.0841 118 51.0081L116.989 45.7413L118.344 45.5695C123.343 44.9589 128.018 48.451 128.991 53.527L130.002 58.7938ZM120.004 48.1075L120.462 50.4738C121.091 53.756 123.82 56.1413 126.969 56.3894L126.511 54.0041C125.881 50.7218 123.152 48.3365 120.004 48.0884V48.1075Z" fill="white"/>
<path d="M117.829 36.8106L115.348 37.3258L114.26 31.6201L116.722 31.1048L117.829 36.8106Z" fill="white"/>
<path d="M125.633 49.5196L124.622 44.2528C123.648 39.1768 126.663 34.1008 131.51 32.7078L132.827 32.3261L133.838 37.5929C134.811 42.6689 131.796 47.7449 126.95 49.138L125.633 49.5196ZM130.899 35.7228C128.094 37.1922 126.453 40.4744 127.083 43.7376L127.541 46.1229C130.346 44.6535 131.987 41.3713 131.357 38.1082L130.899 35.7228Z" fill="white"/>
<path d="M127.522 59.3091L126.511 54.0422C125.537 48.9662 128.552 43.8902 133.399 42.4972L134.716 42.1155L135.727 47.3824C136.7 52.4584 133.685 57.5344 128.839 58.9274L127.522 59.3091ZM132.788 45.5123C129.983 46.9816 128.342 50.2448 128.972 53.527L129.43 55.9123C132.235 54.443 133.876 51.1607 133.246 47.8976L132.788 45.5313V45.5123Z" fill="white"/>
<path d="M133.094 33.7001L130.613 34.2153L129.506 28.5096L131.987 27.9944L133.094 33.7001Z" fill="white"/>
<path d="M12.4221 82.7617C21.6766 82.7617 25.283 88.5819 25.283 97.3409V103.848C25.283 113.37 20.9134 118.084 11.3917 118.084H3.9308V142.777H0V82.7617H12.4221ZM11.3917 114.477C18.3374 114.477 21.3332 111.386 21.3332 104.096V97.0737C21.3332 90.5665 19.1006 86.3492 12.4221 86.3492H3.94988V114.458H11.4108L11.3917 114.477Z" fill="white"/>
<path d="M40.1094 129.476L37.1136 142.758H33.5072L46.6162 82.6663H52.3598L65.7359 142.758H61.786L58.7902 129.476H40.1094ZM40.7009 126.041H58.1796L49.3449 87.208L40.6819 126.041H40.7009Z" fill="white"/>
<path d="M79.6273 142.777H76.0209V82.7617H81.1729L99.1668 133.426V82.7617H102.773V142.777H98.4035L79.6273 89.288V142.777Z" fill="white"/>
<path d="M134.143 110.546V114.153H117.771V139.189H137.483V142.796H113.821V82.7808H137.483V86.3874H117.771V110.565H134.143V110.546Z" fill="white"/>
<path d="M182.706 121.175C181.675 121.271 180.645 121.461 179.595 121.786C178.546 122.11 177.745 122.625 177.191 123.312C176.829 123.732 176.466 124.343 176.084 125.163C175.703 125.984 175.264 126.938 174.749 128.064C174.234 129.171 173.699 130.278 173.165 131.346C172.631 132.415 171.925 133.503 171.085 134.59C171.772 135.43 172.631 136.327 173.642 137.319C174.653 138.292 175.512 139.018 176.218 139.437C176.905 139.838 177.897 140.182 179.176 140.449C180.454 140.735 181.504 140.888 182.324 140.926V142.777H171.581L167.689 138.35C167.116 138.979 166.467 139.628 165.723 140.296C164.979 140.964 164.216 141.536 163.395 142.033C162.498 142.548 161.582 142.968 160.667 143.254C159.751 143.54 158.682 143.693 157.442 143.693C156.202 143.693 154.885 143.502 153.606 143.139C152.328 142.758 151.183 142.166 150.134 141.346C149.122 140.544 148.302 139.514 147.672 138.273C147.042 137.033 146.737 135.525 146.737 133.789C146.737 131.633 147.31 129.686 148.454 127.93C149.599 126.175 151.717 124.324 154.828 122.358C153.416 120.488 152.328 118.885 151.546 117.53C150.763 116.176 150.363 114.649 150.363 112.97C150.363 111.767 150.592 110.661 151.088 109.668C151.565 108.676 152.233 107.798 153.11 107.054C153.912 106.367 154.885 105.852 156.03 105.47C157.175 105.088 158.339 104.898 159.522 104.898C160.915 104.898 162.136 105.127 163.185 105.566C164.235 106.004 165.094 106.596 165.761 107.302C166.372 107.97 166.83 108.733 167.154 109.592C167.479 110.451 167.631 111.329 167.631 112.206C167.631 114.286 166.983 116.099 165.685 117.588C164.387 119.095 162.613 120.45 160.342 121.652C161.983 123.866 163.567 125.87 165.132 127.701C166.696 129.533 168.204 131.308 169.635 133.064C170.799 131.194 171.696 129.457 172.344 127.816C172.993 126.175 173.299 124.725 173.299 123.465C173.299 122.912 172.898 122.473 172.077 122.148C171.257 121.824 170.15 121.519 168.719 121.213V119.362H182.668V121.213L182.706 121.175ZM166.296 136.823C164.674 134.762 162.861 132.529 160.838 130.087C158.816 127.644 157.194 125.583 155.973 123.885C154.56 124.858 153.568 126.003 152.977 127.32C152.385 128.637 152.099 130.125 152.099 131.823C152.099 134.19 152.767 136.155 154.122 137.701C155.476 139.266 157.27 140.029 159.541 140.029C160.819 140.029 162.06 139.762 163.281 139.208C164.502 138.655 165.513 137.873 166.296 136.823ZM164.254 112.683C164.254 110.909 163.872 109.554 163.09 108.6C162.308 107.646 161.201 107.168 159.751 107.168C158.93 107.168 158.262 107.34 157.728 107.665C157.194 107.989 156.736 108.409 156.354 108.924C156.011 109.401 155.763 109.935 155.591 110.489C155.438 111.042 155.362 111.538 155.362 111.977C155.362 113.18 155.667 114.382 156.297 115.622C156.927 116.863 157.9 118.332 159.216 120.068C160.991 119.057 162.289 117.969 163.071 116.786C163.853 115.603 164.254 114.248 164.254 112.683Z" fill="white"/>
<path d="M188.564 97.4172C188.564 88.6773 192.59 82.2465 201.673 82.2465C210.756 82.2465 214.954 88.6773 214.954 97.4172V128.102C214.954 136.842 210.927 143.273 201.673 143.273C192.418 143.273 188.564 136.842 188.564 128.102V97.4172ZM192.514 128.369C192.514 134.877 195.09 139.685 201.692 139.685C208.294 139.685 211.042 134.877 211.042 128.369V97.1691C211.042 90.6619 208.389 85.8531 201.692 85.8531C194.994 85.8531 192.514 90.6619 192.514 97.1691V128.369Z" fill="white"/>
<path d="M225.773 142.777V82.7617H229.723V139.17H248.575V142.777H225.773Z" fill="white"/>
<path d="M262.715 82.7617V142.777H258.765V82.7617H262.715Z" fill="white"/>
<path d="M273.61 97.4172C273.61 88.6773 277.636 82.2465 286.719 82.2465C295.802 82.2465 300 88.6773 300 97.4172V128.102C300 136.842 295.974 143.273 286.719 143.273C277.465 143.273 273.61 136.842 273.61 128.102V97.4172ZM277.56 128.369C277.56 134.877 280.136 139.685 286.738 139.685C293.341 139.685 296.088 134.877 296.088 128.369V97.1691C296.088 90.6619 293.436 85.8531 286.738 85.8531C280.041 85.8531 277.56 90.6619 277.56 97.1691V128.369Z" fill="white"/>
<path d="M112.925 162.546H117.237V165.409H112.925V171.267H118.344V174.13H109.776V154.131H118.344V156.993H112.925V162.566V162.546Z" fill="white"/>
<path d="M127.369 153.883C130.422 153.883 132.006 155.715 132.006 158.902V159.531H129.029V158.711C129.029 157.28 128.457 156.745 127.465 156.745C126.472 156.745 125.9 157.28 125.9 158.711C125.9 162.833 132.044 163.596 132.044 169.302C132.044 172.508 130.441 174.321 127.369 174.321C124.297 174.321 122.675 172.489 122.675 169.302V168.08H125.652V169.512C125.652 170.943 126.282 171.458 127.274 171.458C128.266 171.458 128.896 170.943 128.896 169.512C128.896 165.39 122.752 164.626 122.752 158.921C122.752 155.715 124.316 153.902 127.369 153.902V153.883Z" fill="white"/>
<path d="M135.784 154.112H145.497V156.974H142.215V174.111H139.066V156.974H135.784V154.112Z" fill="white"/>
<path d="M161.602 156.745C160.609 156.745 159.98 157.28 159.98 158.711V160.848H157.003V158.902C157.003 155.696 158.606 153.883 161.697 153.883C164.788 153.883 166.391 155.715 166.391 158.902C166.391 165.18 160.132 167.527 160.132 170.809C160.132 170.962 160.132 171.096 160.151 171.229H166.086V174.092H157.003V171.63C157.003 165.752 163.224 164.779 163.224 158.997C163.224 157.203 162.594 156.707 161.602 156.707V156.745Z" fill="white"/>
<path d="M170.913 158.921C170.913 155.715 172.593 153.902 175.684 153.902C178.775 153.902 180.454 155.734 180.454 158.921V169.321C180.454 172.527 178.775 174.34 175.684 174.34C172.593 174.34 170.913 172.508 170.913 169.321V158.921ZM174.062 169.512C174.062 170.943 174.692 171.477 175.684 171.477C176.676 171.477 177.306 170.943 177.306 169.512V158.711C177.306 157.28 176.676 156.745 175.684 156.745C174.692 156.745 174.062 157.28 174.062 158.711V169.512Z" fill="white"/>
<path d="M189.938 156.745C188.945 156.745 188.316 157.28 188.316 158.711V160.848H185.339V158.902C185.339 155.696 186.942 153.883 190.033 153.883C193.124 153.883 194.727 155.715 194.727 158.902C194.727 165.18 188.468 167.527 188.468 170.809C188.468 170.962 188.468 171.096 188.488 171.229H194.422V174.092H185.339V171.63C185.339 165.752 191.56 164.779 191.56 158.997C191.56 157.203 190.93 156.707 189.938 156.707V156.745Z" fill="white"/>
<path d="M205.565 159.035C205.565 157.241 204.936 156.745 203.944 156.745C202.951 156.745 202.322 157.28 202.322 158.711V159.989H199.345V158.902C199.345 155.696 200.948 153.883 204.039 153.883C207.13 153.883 208.733 155.715 208.733 158.902V159.417C208.733 161.554 208.046 162.909 206.539 163.539C208.103 164.226 208.733 165.714 208.733 167.737V169.302C208.733 172.508 207.13 174.321 204.039 174.321C200.948 174.321 199.345 172.489 199.345 169.302V167.642H202.322V169.493C202.322 170.924 202.951 171.458 203.944 171.458C204.936 171.458 205.565 170.981 205.565 169.206V167.642C205.565 165.791 204.936 165.104 203.505 165.104H202.455V162.241H203.676C204.84 162.241 205.565 161.726 205.565 160.123V159.016V159.035Z" fill="white"/>
<path d="M49.9555 158.501L51.9209 162.47L56.3096 163.119L53.1421 166.21L53.8863 170.58L49.9555 168.519L46.0438 170.58L46.788 166.21L43.6204 163.119L48.0092 162.47L49.9555 158.501Z" fill="white"/>
<path d="M68.9607 158.501L70.907 162.47L75.2958 163.119L72.1283 166.21L72.8724 170.58L68.9607 168.519L65.0299 170.58L65.7741 166.21L62.6066 163.119L66.9953 162.47L68.9607 158.501Z" fill="white"/>
<path d="M87.9469 158.501L89.9123 162.47L94.301 163.119L91.1144 166.21L91.8586 170.58L87.9469 168.519L84.0161 170.58L84.7602 166.21L81.5927 163.119L85.9815 162.47L87.9469 158.501Z" fill="white"/>
<path d="M230.371 158.501L232.337 162.47L236.726 163.119L233.558 166.21L234.302 170.58L230.371 168.519L226.46 170.58L227.204 166.21L224.036 163.119L228.425 162.47L230.371 158.501Z" fill="white"/>
<path d="M249.377 158.501L251.323 162.47L255.731 163.119L252.544 166.21L253.288 170.58L249.377 168.519L245.446 170.58L246.19 166.21L243.023 163.119L247.411 162.47L249.377 158.501Z" fill="white"/>
<path d="M268.363 158.501L270.328 162.47L274.717 163.119L271.53 166.21L272.274 170.58L268.363 168.519L264.432 170.58L265.176 166.21L262.009 163.119L266.397 162.47L268.363 158.501Z" fill="white"/>
<path d="M176.371 41.9056C176.371 41.9056 176.409 41.9056 176.428 41.9247C176.886 42.1155 177.42 41.8865 177.592 41.4095C177.668 41.1996 189.003 15.1898 203.333 14.1975C203.829 14.1594 204.211 13.7395 204.172 13.2434C204.134 12.7472 203.715 12.3656 203.199 12.4038C187.724 13.4724 176.256 39.8829 175.913 40.7607C175.741 41.2186 175.932 41.7148 176.371 41.9056Z" fill="white"/>
<path d="M187.152 23.6435C187.438 23.8152 187.82 23.7961 188.068 23.5481C190.51 21.2581 195.109 22.0405 197.418 24.2541C197.704 24.5404 198.2 24.5213 198.486 24.2351C198.772 23.9297 198.753 23.4527 198.467 23.1664C195.624 20.4376 190.128 19.5598 187.056 22.4413C186.751 22.7275 186.732 23.2046 187.018 23.5099C187.056 23.5672 187.114 23.6053 187.171 23.6435H187.152Z" fill="white"/>
<path d="M175.646 33.5474C175.875 33.6428 176.123 33.6428 176.352 33.5474C178.222 32.7268 181.16 33.0512 181.198 33.0512C181.694 33.1085 182.133 32.7459 182.191 32.2498C182.248 31.7536 181.904 31.3147 181.389 31.2575C181.256 31.2575 177.935 30.8758 175.607 31.9063C175.149 32.1162 174.94 32.6505 175.149 33.0894C175.245 33.3184 175.417 33.4711 175.627 33.5665L175.646 33.5474Z" fill="white"/>
<path d="M186.331 34.6542C186.408 34.5206 186.465 34.387 186.484 34.2153C186.484 34.139 186.923 27.4218 187.514 25.1128C187.629 24.6358 187.343 24.1396 186.866 24.0251C186.389 23.9106 185.892 24.1969 185.778 24.6739C185.148 27.1356 184.709 33.8146 184.69 34.1008C184.652 34.5969 185.034 35.0358 185.53 35.0549C185.854 35.074 186.16 34.9213 186.35 34.6542H186.331Z" fill="white"/>
<path d="M172.383 0C180.702 5.99197 184.442 23.5862 180.263 32.994C173.68 25.0938 170.226 12.3465 172.383 0Z" fill="white"/>
<path d="M197.608 22.8993C203.657 22.9947 213.484 35.5129 214.82 53.1835C204.344 45.1688 197.437 30.1316 197.608 22.8993Z" fill="white"/>
<path d="M177.516 32.4788C170.36 27.9562 157.804 35.3984 152.958 39.2531C160.991 41.9056 174.443 36.5434 177.516 32.4788Z" fill="white"/>
<path d="M168.891 66.4078C167.841 66.5414 166.811 66.4269 165.857 66.0452C163.605 65.1293 162.155 62.8584 161.735 59.6525C161.353 56.7329 161.888 53.3362 163.243 50.0539C164.597 46.7717 166.601 43.9666 168.929 42.1728C171.467 40.1882 174.119 39.6157 176.352 40.5317C180.759 42.3445 181.923 49.367 178.985 56.523C177.63 59.8052 175.626 62.6104 173.299 64.4041C171.829 65.5491 170.341 66.217 168.891 66.4078Z" fill="white"/>
<path d="M195.509 52.2866C192.533 52.2866 189.06 50.1875 186.56 46.5809C184.976 44.31 184.041 41.7911 183.908 39.463C183.755 36.8869 184.595 34.8068 186.255 33.6428C187.934 32.4788 190.148 32.4215 192.514 33.4711C194.651 34.4061 196.673 36.1808 198.257 38.4516C201.711 43.4131 201.845 49.0998 198.563 51.3706C197.666 52.0004 196.616 52.2866 195.509 52.2866Z" fill="white"/>
</g>
<defs>
<clipPath id="clip0_19_1080">
<rect width="300" height="174.34" fill="white"/>
</clipPath>
</defs>
</svg>
