<svg width="70" height="52" viewBox="0 0 70 52" fill="none" xmlns="http://www.w3.org/2000/svg">
<path d="M69.8698 34.3245C69.81 34.2049 69.6904 34.0853 69.5708 34.0254C69.4511 33.9656 69.2717 33.9656 69.1521 34.0254C67.7166 34.3843 66.341 34.803 64.9653 35.3413C61.6159 36.5375 57.788 37.9132 54.3189 36.6571C51.2088 35.5207 49.9527 32.8292 48.7565 30.2573C48.2182 28.9415 47.5005 27.6855 46.6631 26.5491C46.4837 26.3696 46.3043 26.3098 46.1248 26.25C45.8856 26.1902 45.7062 26.25 45.4669 26.3696C44.1511 27.1472 43.0147 28.164 41.9979 29.2406C40.2633 30.9153 38.5288 32.7096 35.8971 33.1881L35.6579 33.2479L35.5383 33.0685C35.4187 32.8292 35.299 32.59 35.1794 32.3507C34.9402 31.8722 34.7009 31.3938 34.4617 30.8555C34.4019 30.7358 34.2822 30.6162 34.1626 30.5564C34.043 30.4966 33.9234 30.4368 33.7439 30.377C33.5645 30.3172 33.3851 30.3172 33.2056 30.377C33.0262 30.4368 32.8468 30.4966 32.7272 30.6162C32.3085 31.0349 31.9496 31.4536 31.5907 31.8722C30.6936 33.0685 29.5572 34.0254 28.361 34.8628L28.1217 34.9824V34.6834C26.6862 32.8292 24.7125 30.676 22.5593 30.4368C22.021 30.377 21.4229 30.4966 20.8846 30.676C20.3463 30.8555 19.8678 31.1545 19.4491 31.5732C18.6117 32.2909 17.8342 33.0685 17.1165 33.846C16.8174 34.2049 16.4585 34.5637 16.0997 34.9226L15.5614 35.5207L15.6212 34.7432C15.681 33.1283 15.7408 31.3938 15.7408 29.2406C15.7408 24.6949 15.6212 21.0464 15.382 17.697C15.3221 16.6204 15.2025 15.5438 15.0829 14.4672C14.9035 12.6729 14.724 10.8188 14.6642 9.02443C14.6642 8.72537 14.6044 8.3665 14.6044 7.94783C14.425 5.67501 14.1857 2.56483 16.0399 1.00975C16.0399 1.00975 16.0997 0.949934 16.0399 0.830312C15.9801 0.770501 15.9203 0.71069 15.8006 0.650879C15.681 0.650879 15.6212 0.650879 15.5016 0.650879C13.468 2.02653 13.3484 4.77784 13.2288 7.05066V7.11047C13.1689 9.62254 13.2886 12.1346 13.5278 14.6467C13.5876 15.484 13.6474 16.3214 13.7072 17.1587C14.0661 22.5417 14.1259 27.9247 13.8269 33.3077C13.7671 34.6236 13.7072 35.8198 13.5876 36.8964V37.1356L13.3484 37.1954C12.9297 37.2552 12.7503 36.9562 12.3914 36.5375L12.0923 36.1188C11.4942 35.2815 10.9559 34.3843 10.5373 33.4871C10.4176 33.1881 10.2382 32.889 10.0588 32.59C8.86255 30.377 7.48689 28.1041 5.33369 28.1041C4.7954 28.1041 4.19729 28.2836 3.7188 28.5228C0.668433 29.9583 0.130134 33.4273 0.0105116 36.8964C-0.0492995 39.6477 0.967489 48.4997 4.85521 51.0118C6.29067 51.9089 8.02519 51.8491 9.93915 50.8922C12.9297 49.3371 13.8867 45.868 14.6044 42.698C14.9035 41.2028 15.1427 39.7075 15.3221 38.1524V38.0328L15.4418 37.973C16.9968 36.7767 18.4323 35.4609 19.7482 34.0853L20.2266 33.547L20.4659 33.3077C21.064 32.7096 21.7219 31.9919 22.9181 32.1713C24.2938 32.4105 25.7891 34.6236 26.6862 35.8796C26.8657 36.1188 26.9853 36.3581 27.1049 36.4777C27.2843 36.6571 27.4638 36.7767 27.703 36.8366C27.9423 36.8964 28.1217 36.8964 28.361 36.8366C30.5141 35.9992 31.7702 34.6236 33.2056 33.0087L33.5047 32.6498L33.6841 33.0685C33.9234 33.4273 34.1028 33.846 34.2822 34.2647C34.4019 34.4441 34.5215 34.5637 34.7009 34.6236C34.8804 34.6834 35.0598 34.7432 35.2392 34.7432C38.7083 34.5039 40.6222 32.6498 42.6558 30.6162C43.553 29.6592 44.5697 28.7621 45.6463 27.9845L45.8856 27.8051L46.065 28.0443C46.7229 29.0611 47.2612 30.1377 47.7995 31.2143C49.235 34.0853 50.5508 36.8366 54.4984 37.9132C58.745 39.1094 63.2308 37.2552 67.1783 35.6403C68.0755 35.2815 68.853 34.9226 69.6306 34.6236C69.8698 34.6236 69.9296 34.5039 69.8698 34.3245ZM13.3484 39.3486C13.1689 40.7243 12.8699 42.0999 12.511 43.4756V43.5354C11.9727 45.5092 10.9559 49.2773 8.085 49.9352C7.78595 49.995 7.48689 50.0548 7.18784 50.0548C6.76916 50.0548 6.29067 49.995 5.87199 49.8156C5.45332 49.5763 5.09445 49.3371 4.7954 49.038C1.5656 45.9877 1.74503 36.5375 2.1039 34.4441C2.34314 33.0685 2.6422 31.633 3.83842 30.4966C4.55615 29.8387 5.15426 29.5396 5.69256 29.6592C6.64954 29.7789 7.18784 30.8555 7.78595 31.9321C8.085 32.4704 8.38406 33.0685 8.6233 33.6068C9.64009 35.7001 10.6569 37.7935 12.9297 38.9898H12.9895L13.2886 39.0496L13.3484 39.3486Z" fill="white"/>
</svg>
